<?xml version="1.0" standalone="no"?>
<!DOCTYPE svg PUBLIC "-//W3C//DTD SVG 20010904//EN"
 "http://www.w3.org/TR/2001/REC-SVG-20010904/DTD/svg10.dtd">
<svg version="1.0" xmlns="http://www.w3.org/2000/svg"
 width="853.000000pt" height="1280.000000pt" viewBox="0 0 853.000000 1280.000000"
 preserveAspectRatio="xMidYMid meet">

<g transform="translate(0.000000,1280.000000) scale(0.100000,-0.100000)"
fill="#000000" stroke="none">
<path d="M0 10485 c0 -1845 3 -2315 13 -2315 8 0 7 -4 -3 -11 -13 -9 -12 -10
2 -5 10 3 57 -15 110 -42 97 -50 382 -182 392 -182 11 0 208 -86 361 -158 83
-39 197 -88 255 -110 l105 -40 8 -73 c4 -41 6 -182 5 -314 l-3 -240 -44 -6
c-44 -6 -72 -29 -90 -74 -4 -11 -5 -147 -2 -302 7 -324 4 -313 95 -321 l56 -4
0 -44 c0 -23 -4 -45 -9 -48 -5 -3 -87 3 -182 14 -96 11 -182 20 -191 20 -10 0
-18 5 -18 11 0 5 5 7 10 4 19 -12 10 14 -10 28 -10 7 -24 25 -29 40 -6 14 -18
26 -28 26 -46 1 -407 49 -438 58 -28 9 -59 11 -222 19 l-143 7 0 -3211 0
-3212 4265 0 4265 0 0 3480 c0 2313 -3 3480 -10 3480 -5 0 -10 -17 -10 -38 0
-22 -7 -61 -15 -88 -8 -27 -15 -60 -15 -74 0 -60 -51 -153 -91 -165 -10 -4
-18 -9 -16 -13 1 -4 -10 -21 -25 -37 -27 -28 -28 -35 -28 -127 0 -54 -4 -98
-9 -98 -14 0 -22 -47 -27 -158 -3 -68 -10 -111 -19 -126 -9 -13 -13 -30 -10
-39 4 -8 2 -18 -4 -22 -6 -3 -11 -20 -11 -37 0 -16 -9 -41 -20 -55 -11 -14
-20 -33 -20 -43 0 -9 -11 -26 -25 -38 -14 -12 -25 -26 -25 -32 0 -5 -7 -10
-15 -10 -10 0 -15 -11 -16 -37 l-1 -38 -10 40 c-8 35 -5 366 14 1640 1 75 -3
128 -10 141 -15 28 -81 54 -136 54 -36 0 -50 6 -81 35 l-38 34 5 328 c3 181 2
338 -2 349 -5 12 -31 29 -69 44 -59 24 -78 40 -46 40 11 0 15 11 15 43 0 43 9
277 36 902 8 198 20 374 26 391 l11 31 111 7 c138 9 176 18 207 53 22 25 54
86 54 105 0 3 3 10 8 14 4 4 7 -6 7 -22 0 -17 -5 -35 -11 -41 -8 -8 -7 -24 5
-58 8 -26 13 -51 11 -56 -3 -4 -1 -10 5 -14 5 -3 10 -17 10 -31 0 -14 11 -46
25 -72 14 -26 25 -63 25 -83 0 -20 7 -42 15 -49 9 -7 15 -29 15 -55 0 -26 6
-47 15 -55 9 -7 15 -20 13 -29 -4 -21 22 -102 39 -122 7 -8 13 -34 13 -57 0
-22 5 -44 10 -47 6 -3 10 -28 10 -56 0 -27 5 -49 10 -49 6 0 10 -18 10 -40 0
-22 4 -40 9 -40 5 0 12 -36 15 -80 3 -44 9 -116 12 -160 4 -59 10 -80 20 -80
10 0 14 -12 14 -40 0 -29 -4 -40 -15 -40 -11 0 -15 -11 -15 -40 0 -36 3 -40
25 -40 l25 0 0 2160 0 2160 -1432 0 c-1275 -1 -1431 -2 -1413 -16 11 -8 38
-20 60 -26 22 -7 56 -26 76 -44 20 -17 54 -37 75 -44 22 -7 43 -16 49 -21 5
-5 18 -9 28 -9 10 0 21 -8 24 -19 3 -10 22 -27 44 -36 21 -10 39 -24 39 -30 0
-7 17 -20 38 -28 21 -8 56 -30 78 -49 22 -18 59 -42 82 -52 23 -11 42 -25 42
-31 0 -7 17 -20 38 -28 42 -17 100 -60 173 -128 27 -26 63 -52 79 -59 17 -7
30 -18 30 -25 0 -7 17 -20 38 -28 20 -9 46 -22 57 -31 19 -15 19 -15 -10 -16
-26 -1 -23 -4 20 -17 31 -9 62 -28 81 -49 18 -19 37 -34 43 -34 6 0 11 -5 11
-11 0 -6 -8 -8 -17 -5 -10 3 -54 12 -98 20 -44 9 -134 27 -200 42 -66 14 -147
30 -180 36 -38 7 -67 19 -80 33 -23 25 -90 77 -120 93 -11 5 -155 38 -320 71
-469 96 -444 90 -495 131 -42 35 -78 53 -190 95 -57 21 -232 55 -287 55 -23 0
-44 4 -47 9 -3 4 -34 14 -68 20 -35 7 -90 18 -123 26 -33 8 -85 19 -115 25
-196 36 -215 44 -309 133 l-50 47 -388 0 c-410 0 -453 -4 -541 -49 -54 -28
-72 -65 -72 -151 0 -39 -4 -79 -9 -88 -9 -17 -161 -94 -321 -163 -178 -76
-203 -90 -237 -129 -20 -22 -39 -40 -43 -40 -4 0 -40 -18 -81 -41 -259 -144
-321 -174 -540 -268 -53 -23 -100 -41 -105 -41 -12 0 -64 -52 -64 -65 0 -6
-26 -24 -57 -40 -32 -17 -88 -47 -124 -67 -36 -21 -71 -38 -78 -38 -7 0 -27
-11 -45 -25 -18 -14 -36 -25 -40 -25 -3 0 -24 -11 -46 -25 -22 -14 -42 -25
-45 -25 -10 0 30 37 53 49 13 7 20 17 16 23 -5 7 -2 9 9 5 10 -4 26 4 44 22
16 15 33 30 40 32 6 2 13 11 15 19 4 18 57 60 76 60 9 0 12 6 8 16 -4 11 -1
14 12 10 14 -5 18 -1 18 16 -1 15 8 27 28 36 40 20 96 80 96 103 0 11 4 17 10
14 5 -3 10 1 10 9 0 9 5 16 10 16 6 0 21 10 34 23 25 24 52 43 76 54 8 4 26
17 40 30 14 13 33 23 42 23 11 0 18 8 18 19 0 11 8 22 18 25 10 4 32 19 48 35
16 15 40 32 53 36 13 4 40 21 60 39 20 18 55 38 78 44 43 13 139 98 145 129 2
10 24 24 51 33 26 9 58 27 73 40 20 20 27 22 34 10 7 -11 14 -7 35 18 15 18
33 32 40 32 7 0 26 14 42 30 15 17 34 30 42 30 21 0 81 43 81 58 0 7 18 19 40
28 22 9 40 23 40 30 0 8 17 22 38 32 20 9 39 20 40 25 2 4 10 7 17 7 8 0 17 5
20 10 4 7 -497 10 -1494 10 l-1501 0 0 -2315z m4486 2040 c200 -65 388 -134
369 -135 -6 0 -64 16 -130 36 -66 20 -136 40 -155 45 -19 6 -53 16 -75 24 -22
7 -87 28 -145 46 -58 17 -109 36 -114 40 -27 25 72 2 250 -56z m2409 -535 c13
-5 14 -9 5 -9 -8 0 -24 4 -35 9 -13 5 -14 9 -5 9 8 0 24 -4 35 -9z m30 -30 c8
-13 -5 -13 -25 0 -13 8 -13 10 2 10 9 0 20 -4 23 -10z m-5418 -286 c-3 -3 -12
-4 -19 -1 -8 3 -5 6 6 6 11 1 17 -2 13 -5z m-132 -94 c3 -5 1 -10 -4 -10 -6 0
-11 5 -11 10 0 6 2 10 4 10 3 0 8 -4 11 -10z m-60 -70 c-27 -12 -43 -12 -25 0
8 5 22 9 30 9 10 0 8 -3 -5 -9z m-480 -1053 c24 -50 73 -80 230 -136 28 -10
69 -27 91 -37 l41 -19 6 -115 c10 -172 31 -1659 25 -1665 -3 -3 -59 30 -124
73 -197 132 -559 352 -704 429 -168 89 -213 118 -217 140 -2 6 4 28 12 47 8
19 15 50 15 68 0 18 7 46 15 62 8 15 15 40 15 55 0 15 9 46 20 69 11 22 20 48
20 56 0 8 8 23 19 33 10 10 21 32 24 48 6 39 57 159 68 163 5 2 9 28 9 58 0
38 4 54 13 54 7 0 21 24 32 53 10 28 27 67 37 85 10 18 18 46 18 62 0 36 29
112 47 123 7 4 13 21 13 37 0 16 6 33 13 37 7 4 19 24 27 43 8 19 20 39 27 43
7 4 13 22 13 38 0 21 6 32 18 36 9 2 28 29 42 59 14 30 28 54 32 54 4 0 10 11
14 25 3 14 12 25 20 25 13 0 33 54 35 100 1 14 5 -18 9 -71 4 -55 15 -111 25
-132z m5140 104 c28 -16 67 -47 88 -70 46 -50 85 -71 157 -86 54 -12 55 -12
54 -46 -1 -19 -4 -288 -8 -599 -4 -311 -11 -700 -16 -865 -5 -165 -14 -563
-21 -885 -6 -322 -13 -591 -15 -598 -3 -10 -8 -10 -25 -1 -17 9 -31 8 -60 -1
-34 -12 -41 -11 -57 3 -40 36 -89 15 -109 -48 -10 -30 -36 -49 -83 -60 -75
-16 -81 -60 -26 -190 49 -118 60 -138 107 -188 55 -58 72 -93 66 -133 -3 -18
-1 -64 4 -101 13 -90 2 -213 -18 -213 -9 0 -41 25 -71 55 -75 74 -126 99 -182
86 -51 -11 -68 -26 -99 -88 -14 -26 -26 -49 -27 -51 -1 -2 -11 1 -22 7 -11 6
-50 12 -86 15 -62 3 -66 2 -66 -19 0 -27 29 -225 35 -244 6 -15 -32 -101 -49
-113 -6 -4 -21 -8 -33 -8 -28 0 -78 66 -94 122 -17 66 -54 61 -78 -11 -9 -28
-8 -37 5 -52 9 -10 14 -26 12 -36 -3 -15 -13 -18 -58 -18 l-55 0 -22 45 c-11
25 -19 48 -17 51 4 7 75 -4 92 -15 8 -5 12 0 12 13 0 22 -33 52 -80 71 -19 8
-30 20 -30 32 0 24 64 114 91 128 32 18 34 72 6 127 -14 26 -31 66 -38 88 -7
22 -19 50 -27 63 -13 20 -13 29 1 80 40 142 45 162 34 162 -5 0 -52 20 -104
45 -51 25 -100 45 -108 45 -8 0 -38 11 -67 24 -101 46 -129 56 -149 56 -21 0
-21 3 -16 113 6 109 29 232 47 251 6 6 19 5 33 -3 13 -7 37 -11 53 -9 40 4 97
94 131 206 61 201 28 335 -75 304 -42 -13 -47 -11 -33 16 19 36 12 103 -24
231 -19 69 -35 135 -35 148 0 51 -81 259 -107 276 -7 4 -13 17 -13 27 0 10 -8
25 -18 32 -9 7 -22 27 -27 43 -6 17 -20 34 -33 40 -12 5 -22 16 -22 23 0 9
-10 12 -32 10 -28 -2 -32 0 -30 16 3 13 -1 17 -11 13 -9 -3 -17 2 -20 13 -5
19 -21 21 -44 7 -8 -5 -13 -3 -13 7 0 15 -33 39 -42 31 -3 -3 -13 4 -23 15
-22 25 -55 26 -56 3 0 -12 -4 -8 -11 10 -11 31 -24 34 -57 11 -22 -16 -24 -16
-33 0 -9 16 -11 16 -24 -3 -12 -17 -19 -18 -44 -9 -23 8 -35 7 -53 -4 -17 -12
-28 -12 -47 -4 -44 19 -100 68 -100 86 0 10 -5 20 -11 22 -8 3 -8 36 0 118 6
63 13 185 16 270 5 114 10 159 21 171 8 8 14 21 14 28 0 7 6 11 13 8 39 -15
210 -29 231 -19 13 6 41 39 62 74 71 118 276 423 303 449 14 15 58 39 96 54
39 15 75 30 80 34 6 4 57 27 115 51 58 23 123 51 145 60 161 73 333 140 357
140 16 0 46 9 66 19 71 36 164 54 307 61 77 4 142 7 145 8 3 1 28 -11 55 -27z
m-3715 -605 c107 -32 367 -98 495 -125 l129 -27 21 -39 c31 -60 49 -65 233
-65 89 0 162 -4 162 -8 0 -5 -10 -14 -22 -19 -21 -10 -20 -11 13 -11 20 0 46
-5 56 -11 11 -6 24 -7 28 -3 5 4 5 2 2 -4 -4 -7 0 -15 9 -18 8 -3 12 -11 8
-17 -7 -12 7 -68 34 -131 8 -21 16 -53 18 -70 15 -186 15 -246 -1 -473 -16
-219 -21 -255 -41 -295 -13 -25 -23 -55 -23 -66 0 -44 -10 -102 -27 -159 -10
-33 -18 -80 -18 -105 -1 -103 15 -400 23 -451 11 -66 2 -396 -10 -421 -8 -15
-14 -16 -37 -6 -16 7 -103 12 -212 14 -102 1 -234 6 -295 11 l-110 8 -5 76
c-8 126 -32 140 -172 103 -117 -31 -103 -35 -244 69 l-82 60 -6 231 c-3 127
-11 499 -16 826 -5 327 -12 720 -16 874 l-6 279 29 -6 c15 -3 53 -12 83 -21z
m5074 -413 c-1 -113 3 -183 9 -183 5 0 7 -15 4 -32 -3 -18 -8 -226 -11 -462
-8 -485 -8 -487 -77 -514 -33 -13 -37 -17 -28 -34 16 -31 -2 -770 -25 -1018
-1 -14 -10 -39 -19 -57 -11 -20 -17 -56 -17 -96 0 -111 -13 -247 -23 -247 -6
0 -8 93 -3 268 3 147 7 474 8 727 1 253 5 523 9 600 5 77 13 320 19 540 6 220
13 464 17 542 7 160 1 150 93 149 l45 -1 -1 -182z m-3304 143 c0 -2 -7 -6 -15
-10 -8 -3 -15 -1 -15 4 0 6 7 10 15 10 8 0 15 -2 15 -4z m-440 -184 c-1 -138
-5 -196 -29 -432 -6 -52 -12 -126 -15 -165 -6 -80 -19 -132 -41 -160 -13 -18
-14 -15 -15 41 0 33 16 185 35 336 19 152 38 335 41 406 4 72 11 129 16 126 4
-3 8 -71 8 -152z m136 -109 c-8 -87 -20 -225 -26 -308 -6 -82 -14 -175 -17
-205 -5 -52 -6 -53 -15 -25 -12 39 -3 220 21 420 11 88 22 194 26 235 4 41 10
79 13 85 14 20 13 -48 -2 -202z m3884 108 c5 -11 10 -29 10 -40 0 -28 -58 -89
-92 -97 -24 -5 -29 -2 -38 21 -17 44 -12 65 24 101 39 39 79 45 96 15z m885
-630 c3 -5 1 -12 -5 -16 -5 -3 -10 1 -10 9 0 18 6 21 15 7z m-1818 -93 c-3 -8
-6 -5 -6 6 -1 11 2 17 5 13 3 -3 4 -12 1 -19z m909 -13 c18 -45 10 -78 -28
-110 -56 -47 -98 -26 -98 50 0 45 45 95 85 95 20 0 29 -8 41 -35z m-1269 -37
c-3 -8 -6 -5 -6 6 -1 11 2 17 5 13 3 -3 4 -12 1 -19z m353 -22 c0 -8 -4 -18
-10 -21 -5 -3 -10 3 -10 14 0 12 5 21 10 21 6 0 10 -6 10 -14z m-363 -58 c-3
-7 -5 -2 -5 12 0 14 2 19 5 13 2 -7 2 -19 0 -25z m324 -93 c-6 -31 -18 -66
-26 -78 l-16 -22 5 25 c3 14 7 45 11 69 6 48 26 93 32 74 2 -6 0 -37 -6 -68z
m-2677 -250 c-9 -21 -32 -25 -49 -9 -23 24 -18 30 19 26 24 -3 33 -8 30 -17z
m2606 -55 c0 -20 -5 -30 -15 -30 -17 0 -18 4 -9 38 9 32 24 27 24 -8z m-15
-117 c-16 -108 -16 -108 -27 -89 -13 23 10 155 23 134 5 -7 6 -28 4 -45z m871
-164 c-9 -57 -25 -203 -36 -324 -28 -300 -37 -352 -57 -331 -12 12 27 444 53
586 43 234 72 284 40 69z m-596 -33 c0 -29 -58 -233 -76 -270 -28 -56 -67 -96
-93 -96 -40 0 -91 74 -91 131 l0 31 33 -48 c37 -56 79 -70 110 -36 23 25 63
129 84 219 10 40 21 73 26 73 4 0 7 -2 7 -4z m-2737 -79 c54 -80 80 -79 80 6
0 9 4 17 8 17 5 0 9 -4 9 -10 0 -5 21 -10 48 -11 51 -1 48 -4 -13 -14 -38 -6
-39 -7 -20 -22 84 -64 178 -59 254 14 13 13 31 23 41 23 24 0 32 11 19 26 -18
22 -2 32 36 20 20 -6 35 -17 35 -26 0 -9 5 -21 11 -27 16 -16 22 -165 7 -174
-7 -5 -2 -15 15 -32 15 -13 27 -34 27 -47 0 -24 -76 -106 -82 -88 -3 7 -14 5
-31 -7 -15 -9 -34 -14 -43 -11 -38 15 -108 -28 -127 -78 -5 -12 -13 -16 -25
-11 -9 4 -44 11 -76 17 -58 10 -126 42 -126 58 0 10 26 20 53 20 12 0 31 7 41
15 11 8 29 15 39 15 17 0 19 5 14 36 -8 48 -29 78 -79 114 -43 32 -82 39 -91
17 -8 -20 5 -35 36 -42 44 -11 42 -25 -5 -25 -24 0 -59 -4 -79 -9 -64 -15 -66
-8 -62 141 3 73 6 139 9 146 8 26 40 6 77 -51z m2601 27 c9 -4 21 -15 27 -25
9 -17 6 -18 -35 -13 -42 6 -46 5 -57 -19 -7 -15 -16 -24 -20 -21 -13 8 -11 15
11 52 19 31 41 39 74 26z m-234 -124 c-5 -3 -10 -23 -13 -45 -3 -31 -4 -26 -5
20 -1 33 1 78 5 100 l7 40 7 -55 c4 -30 4 -57 -1 -60z m-2133 94 c-3 -3 -12
-4 -19 -1 -8 3 -5 6 6 6 11 1 17 -2 13 -5z m-403 -58 c-7 -18 -58 -40 -76 -33
-7 3 -3 6 10 6 12 1 22 4 22 9 0 4 10 12 23 18 12 7 23 12 24 13 1 0 0 -5 -3
-13z m2376 -141 c0 -83 -4 -135 -10 -135 -6 0 -10 44 -10 113 0 102 6 157 16
157 2 0 4 -61 4 -135z m1180 90 c0 -19 -4 -35 -10 -35 -11 0 -13 30 -4 54 10
25 14 19 14 -19z m-3559 -96 c-6 -39 -9 -74 -6 -79 3 -4 1 -20 -5 -35 -16 -41
1 -61 60 -69 31 -4 58 -2 71 5 14 7 25 7 31 1 6 -6 -8 -19 -39 -37 -64 -38
-113 -77 -113 -92 0 -19 -19 -26 -35 -13 -8 6 -18 9 -24 6 -5 -3 -11 1 -15 9
-3 9 -18 15 -37 15 -32 0 -99 41 -99 61 0 5 -9 19 -20 31 -21 23 -27 68 -10
68 6 0 10 7 10 15 0 37 30 74 68 84 47 13 77 34 127 90 47 52 52 45 36 -60z
m-470 4 c7 -20 6 -30 -8 -45 -15 -17 -16 -24 -4 -66 24 -83 24 -96 1 -117 -18
-16 -23 -17 -31 -5 -9 14 -4 164 7 238 6 36 20 34 35 -5z m2986 -40 c-3 -10
-5 -2 -5 17 0 19 2 27 5 18 2 -10 2 -26 0 -35z m-150 -235 c-2 -13 -4 -3 -4
22 0 25 2 35 4 23 2 -13 2 -33 0 -45z m-247 -8 c0 -5 -4 -10 -9 -10 -6 0 -13
5 -16 10 -3 6 1 10 9 10 9 0 16 -4 16 -10z m1605 -90 c18 -7 18 -8 -7 -15 -28
-7 -48 -1 -48 16 0 11 27 11 55 -1z m-4058 -32 c-3 -8 -6 -5 -6 6 -1 11 2 17
5 13 3 -3 4 -12 1 -19z m2699 -45 c-11 -11 -19 6 -11 24 8 17 8 17 12 0 3 -10
2 -21 -1 -24z m163 -65 c-6 -29 -13 -81 -16 -115 -3 -35 -9 -63 -14 -63 -5 0
-9 -27 -9 -60 0 -33 -4 -60 -9 -60 -5 0 -12 -24 -15 -52 -4 -29 -11 -57 -15
-63 -5 -5 -11 -27 -15 -47 -4 -21 -11 -38 -16 -38 -6 0 -10 -7 -10 -15 0 -16
46 -65 61 -65 6 0 26 -15 45 -32 25 -25 32 -39 28 -55 -7 -25 -43 -41 -54 -23
-9 15 -73 17 -78 2 -2 -7 -8 -12 -14 -12 -11 0 -5 91 8 124 3 9 -5 26 -22 43
-28 28 -28 29 -31 181 -2 99 0 152 7 152 5 0 10 -13 10 -30 0 -19 5 -30 14
-30 11 0 13 -9 9 -34 -3 -19 -2 -57 2 -83 l7 -48 18 50 c26 72 70 321 67 383
-1 33 2 52 9 52 7 0 15 10 19 23 6 22 6 22 16 -5 7 -18 6 -43 -2 -80z m-2177
49 c13 -21 -5 -35 -64 -52 -65 -18 -118 -14 -138 10 -10 13 -6 18 26 31 75 32
158 37 176 11z m2065 -34 c-3 -10 -5 -2 -5 17 0 19 2 27 5 18 2 -10 2 -26 0
-35z m-47 -38 c0 -43 -4 -75 -10 -75 -11 0 -14 133 -3 143 12 13 13 7 13 -68z
m-310 -25 c0 -5 -4 -10 -10 -10 -5 0 -10 5 -10 10 0 6 5 10 10 10 6 0 10 -4
10 -10z m903 -73 c-3 -23 -11 -68 -19 -100 -7 -31 -18 -88 -24 -125 -15 -99
-69 -338 -81 -362 -4 -8 -15 -55 -24 -105 -10 -49 -30 -135 -46 -190 -15 -55
-28 -116 -27 -135 1 -19 -6 -60 -16 -90 -9 -30 -18 -68 -20 -85 -16 -134 -28
-210 -40 -270 -8 -38 -19 -118 -24 -176 -6 -78 -13 -111 -25 -124 -9 -9 -17
-24 -17 -33 -1 -9 -8 -28 -16 -42 l-15 -25 5 35 c5 32 39 264 70 485 7 50 23
135 35 190 11 55 28 136 37 180 9 44 20 91 24 105 5 14 12 41 15 60 6 35 48
214 65 280 5 19 23 98 40 175 17 77 38 167 45 200 8 33 22 93 31 132 17 78 35
91 27 20z m-5665 -46 c18 -11 11 -45 -9 -49 -10 -2 -19 6 -22 19 -9 35 4 48
31 30z m5119 -33 c-3 -8 -6 -5 -6 6 -1 11 2 17 5 13 3 -3 4 -12 1 -19z m896
-103 l42 5 -25 -17 c-14 -10 -40 -33 -59 -52 -25 -27 -43 -36 -75 -38 -22 -2
-49 -5 -58 -7 -12 -3 -19 5 -23 24 -8 35 5 62 37 77 38 19 51 20 86 11 19 -5
53 -7 75 -3z m-3870 -87 c38 -104 41 -126 24 -164 -9 -19 -17 -46 -17 -61 0
-33 43 -153 78 -214 30 -55 28 -63 -39 -139 -21 -24 -39 -47 -39 -50 0 -3 -9
-11 -21 -18 -16 -10 -27 -10 -54 -1 -27 10 -39 24 -58 68 -14 31 -30 90 -36
131 -7 41 -19 106 -28 143 -18 79 -14 168 11 215 14 27 139 132 157 132 3 0
13 -19 22 -42z m1545 8 c-2 0 -13 -10 -26 -21 -23 -19 -23 -19 -16 1 9 23 25
35 37 27 4 -3 7 -6 5 -7z m59 -70 c-4 -9 -11 -16 -17 -16 -11 0 -14 33 -3 43
11 11 26 -10 20 -27z m-285 -16 c-3 -20 2 -37 13 -50 17 -19 17 -21 -1 -41
-13 -14 -26 -19 -45 -15 -16 3 -35 -2 -50 -11 -25 -18 -33 -19 -388 -31 -246
-8 -252 -7 -248 59 l2 41 45 -7 c25 -3 126 -8 225 -11 141 -4 196 -2 254 10
48 10 79 12 91 6 14 -7 23 -1 49 35 38 53 60 59 53 15z m-1039 -24 c3 3 15 1
26 -6 25 -13 27 -48 6 -76 -14 -18 -14 -18 -15 9 0 20 -7 31 -27 40 -42 18
-57 35 -35 39 9 3 22 1 28 -4 6 -4 13 -5 17 -2z m-34 -61 c8 -9 -22 -65 -35
-65 -19 0 -36 37 -29 61 6 17 12 19 33 14 15 -4 29 -8 31 -10z m1149 -57 c-2
-11 -11 -22 -20 -24 -17 -2 -17 -1 0 22 21 29 24 30 20 2z m-691 -76 c-18 -2
-32 -12 -39 -28 -8 -17 -19 -24 -37 -23 -24 0 -24 1 -6 9 22 10 5 13 -18 4
-14 -5 -14 -11 1 -50 9 -24 22 -44 28 -44 13 0 28 -30 19 -38 -3 -3 -5 0 -5 6
0 7 -7 12 -16 12 -34 0 -5 -25 32 -27 43 -2 162 -28 172 -37 11 -12 -5 -15
-95 -18 -50 -2 -88 -5 -85 -8 4 -3 7 -12 7 -20 0 -26 130 -62 195 -54 30 3 51
2 47 -2 -5 -5 -45 -12 -90 -15 -75 -6 -90 -3 -187 28 -109 36 -122 37 -225 7
-132 -39 -291 -72 -302 -62 -15 12 -33 2 -33 -18 0 -8 -4 -14 -10 -14 -16 0
-12 43 8 80 25 49 54 80 74 80 10 0 18 4 18 8 0 4 15 16 33 27 24 14 47 19 93
17 66 -3 94 11 94 49 0 10 7 19 15 19 18 0 20 31 3 48 -9 9 -7 12 10 12 12 0
22 5 22 10 0 14 33 13 48 -2 9 -9 12 -9 12 0 0 9 5 10 17 3 12 -7 25 -4 43 8
37 26 153 53 175 42 6 -4 -3 -7 -18 -9z m260 12 c-3 -3 -12 -4 -19 -1 -8 3 -5
6 6 6 11 1 17 -2 13 -5z m265 -14 c26 -5 71 -23 100 -38 58 -32 77 -57 34 -46
-14 3 -37 3 -51 0 l-25 -6 21 -21 c13 -13 30 -19 42 -17 21 4 22 1 19 -46 -4
-50 -5 -51 -53 -75 -27 -14 -49 -28 -49 -31 0 -11 -72 -38 -115 -44 -22 -3
-56 -1 -75 3 l-35 8 40 11 c22 7 48 12 58 12 23 0 70 47 62 61 -4 6 -14 8 -22
5 -8 -3 -11 -1 -8 4 3 6 -3 10 -15 10 -12 0 -30 5 -41 10 -12 7 -26 7 -36 2
-29 -15 -83 -22 -83 -12 0 6 10 10 22 10 12 0 60 12 107 26 47 14 102 31 123
36 32 10 36 14 36 45 0 33 -3 36 -63 63 -60 27 -101 59 -59 46 11 -3 40 -10
66 -16z m-1465 -32 c-3 -7 -5 -2 -5 12 0 14 2 19 5 13 2 -7 2 -19 0 -25z
m1122 -3 c-3 -2 -50 -8 -104 -11 -73 -5 -96 -4 -91 4 5 8 42 12 103 12 53 0
94 -2 92 -5z m2062 -36 c12 -12 19 -29 16 -40 -3 -12 0 -19 8 -19 8 0 29 -16
48 -35 27 -27 42 -35 73 -36 21 -1 31 -3 22 -6 -13 -3 -18 -15 -18 -44 0 -35
-3 -39 -25 -39 -22 0 -25 -4 -25 -40 0 -29 -4 -40 -15 -40 -11 0 -15 -11 -15
-38 0 -37 -22 -82 -41 -82 -5 0 -9 9 -9 20 0 11 -7 20 -15 20 -15 0 -22 45
-17 110 4 63 1 125 -8 130 -20 12 -25 160 -5 160 3 0 14 -9 26 -21z m-338 -28
c7 -7 7 -17 -1 -33 -6 -13 -14 -33 -17 -46 -4 -12 -20 -29 -36 -37 -16 -9 -53
-40 -82 -71 -57 -61 -96 -84 -139 -84 -25 0 -28 3 -28 33 0 18 6 39 13 46 10
10 8 11 -7 5 -17 -7 -19 -4 -13 32 4 21 11 40 17 42 5 2 10 10 10 18 0 8 7 29
16 45 15 30 15 31 -8 24 -13 -3 -3 5 22 19 42 24 52 26 144 22 54 -2 103 -9
109 -15z m-1836 -9 c86 -5 89 -19 4 -20 -33 0 -72 -2 -88 -4 -15 -3 -22 -3
-15 -1 13 5 17 29 5 36 -5 2 -1 1 7 -1 8 -3 48 -7 87 -10z m-112 -2 c3 -5 1
-10 -4 -10 -6 0 -11 5 -11 10 0 6 2 10 4 10 3 0 8 -4 11 -10z m375 -50 c-20
-13 -47 -13 -55 0 -4 6 9 10 32 10 28 0 34 -3 23 -10z m-185 -10 c-5 -8 -84
-4 -94 6 -2 2 19 4 48 4 31 0 50 -4 46 -10z m95 -93 c30 0 89 4 130 8 61 6 73
5 63 -5 -19 -21 -347 -35 -404 -19 l-44 14 60 5 c33 3 78 3 100 1 22 -2 65 -3
95 -4z m-1093 -49 c13 -62 8 -72 -17 -40 -16 19 -19 20 -22 5 -3 -15 -4 -15
-20 1 -10 10 -18 29 -18 44 l0 27 20 -25 20 -25 0 33 c0 52 25 39 37 -20z
m2733 28 c0 -2 -7 -7 -16 -10 -8 -3 -12 -2 -9 4 6 10 25 14 25 6z m-3471 -15
c10 -7 8 -12 -10 -25 -28 -19 -69 -21 -69 -3 0 31 47 48 79 28z m303 -25 c19
-8 40 -22 47 -30 10 -11 24 -14 55 -10 32 5 46 2 60 -11 16 -16 15 -18 -9 -41
-14 -12 -25 -28 -25 -34 0 -14 -39 -28 -61 -23 -14 4 -16 12 -12 39 11 66 -44
107 -86 65 -10 -10 -41 -22 -68 -26 -41 -5 -55 -2 -95 20 -91 51 -85 77 8 30
27 -14 52 -25 56 -25 3 0 20 14 36 30 34 34 46 36 94 16z m3096 -23 c-26 -26
-41 -34 -48 -27 -7 7 1 19 27 37 54 38 64 33 21 -10z m-2818 -43 c26 -16 53
-42 60 -57 8 -16 27 -47 42 -70 15 -23 28 -44 28 -47 0 -14 -98 66 -133 108
-36 43 -63 96 -50 96 3 0 27 -13 53 -30z m-1900 -35 c0 -14 5 -25 10 -25 6 0
10 4 10 8 0 5 18 9 39 10 32 1 41 -2 46 -18 3 -11 2 -26 -2 -35 -8 -13 -12
-13 -37 1 -16 8 -49 15 -72 16 -44 2 -68 23 -39 34 8 4 15 12 15 20 0 8 7 14
15 14 9 0 15 -9 15 -25z m-389 -36 c-9 -23 -10 -23 -10 -2 -1 12 2 30 6 40 6
15 8 15 11 2 1 -8 -2 -26 -7 -40z m1605 21 c128 -21 198 -50 176 -72 -6 -6
-16 -7 -24 -2 -7 5 -26 7 -42 5 -16 -1 -38 2 -50 7 -66 30 -107 42 -153 44
-58 2 -79 10 -69 27 9 15 16 14 162 -9z m3084 -50 c19 -13 60 -36 92 -52 32
-15 58 -32 58 -38 0 -5 8 -10 17 -10 9 0 30 -12 45 -27 24 -23 39 -28 111 -33
60 -5 95 -13 132 -32 66 -35 159 -58 232 -58 l59 0 -4 -342 c-2 -189 -7 -406
-10 -483 l-7 -140 -70 3 c-38 1 -158 9 -265 17 -107 8 -217 17 -244 19 -73 5
-85 26 -86 149 0 83 -4 105 -24 146 -24 47 -126 151 -149 151 -7 0 -22 23 -34
50 l-22 50 27 0 c57 0 182 176 155 219 -6 9 -20 17 -32 19 -13 2 -21 11 -21
23 0 10 -7 19 -15 19 -20 0 -19 8 10 74 27 61 33 127 12 144 -6 6 -27 12 -45
14 l-32 3 20 39 c18 31 19 43 11 69 -6 16 -11 41 -11 55 l0 26 28 -25 c15 -13
43 -35 62 -49z m-2186 -12 c9 -45 -1 -47 -19 -5 -18 45 -19 48 -1 41 8 -3 17
-19 20 -36z m677 2 c10 -6 19 -15 19 -21 0 -6 -6 -6 -17 0 -30 15 -90 -15
-102 -51 -14 -39 -14 -98 -1 -135 9 -26 9 -26 -5 -9 -37 48 -25 181 19 211 24
18 59 19 87 5z m733 -1 c53 -25 70 -140 31 -209 -19 -33 -18 -24 1 33 20 59
13 89 -31 133 -31 30 -37 33 -62 23 -27 -10 -27 -10 -8 10 21 24 34 26 69 10z
m-1579 -110 c9 -17 14 -37 11 -45 -3 -7 -1 -16 4 -19 22 -13 10 -35 -19 -35
-35 0 -54 21 -54 60 0 24 26 70 39 70 2 0 11 -14 19 -31z m295 -1 c0 -7 3 -24
6 -38 5 -17 4 -22 -4 -15 -16 15 -26 65 -13 65 6 0 11 -6 11 -12z m1020 -15
c0 -9 -3 -14 -6 -10 -9 9 -61 -19 -109 -57 -58 -47 -114 -74 -163 -79 -24 -3
-67 -17 -95 -31 -30 -15 -55 -22 -61 -16 -5 5 -18 5 -32 0 -13 -5 -24 -6 -24
-2 0 4 22 16 49 27 27 10 71 35 97 54 101 77 176 109 267 116 33 3 63 7 65 10
9 9 12 6 12 -12z m-460 -58 c0 -12 -7 -28 -15 -35 -13 -11 -18 -10 -30 6 -20
26 -19 51 2 63 23 12 43 -4 43 -34z m690 16 c7 -15 5 -25 -9 -42 -22 -27 -51
-20 -51 14 0 44 41 63 60 28z m-3634 -121 c137 -7 250 -14 252 -15 2 -2 6 -37
9 -78 6 -72 -3 -174 -14 -163 -3 2 -28 -3 -57 -14 -28 -10 -82 -27 -121 -39
-64 -18 -182 -80 -195 -101 -6 -10 -61 -34 -72 -32 -5 1 -8 -1 -8 -6 0 -4 -15
-13 -32 -20 -44 -18 -79 -35 -168 -82 -41 -22 -83 -40 -93 -40 -10 0 -20 -7
-24 -16 -5 -13 -10 -11 -34 12 -16 15 -26 31 -23 36 3 5 0 7 -8 6 -7 -2 -12 2
-11 9 6 30 -86 20 -128 -14 -26 -21 -34 -15 -9 7 13 11 29 20 36 20 7 0 14 3
16 8 2 4 19 16 38 26 48 26 816 408 860 428 l35 16 -80 6 c-153 13 -445 47
-461 53 -12 4 -13 8 -3 14 7 4 20 4 29 -1 9 -5 128 -14 266 -20z m3304 -8 c0
-4 34 -13 75 -19 77 -13 131 -38 212 -98 30 -23 61 -35 115 -44 40 -7 107 -21
150 -32 42 -10 87 -19 100 -19 12 0 57 -13 98 -29 73 -28 76 -31 113 -96 26
-46 40 -85 44 -120 5 -48 3 -56 -21 -80 -26 -26 -26 -26 -54 -7 -15 10 -43 23
-62 29 -19 6 -75 25 -123 42 -103 36 -151 41 -61 7 67 -26 146 -65 154 -76 3
-4 14 -12 25 -18 17 -10 15 -11 -15 -6 -19 3 -80 29 -135 57 -55 28 -94 43
-87 34 8 -9 33 -25 56 -36 23 -12 55 -34 70 -50 28 -29 28 -29 11 -65 -20 -43
-26 -44 -170 -49 -122 -4 -210 -29 -368 -106 l-82 -40 -117 6 c-94 5 -124 10
-152 27 -201 120 -196 118 -285 128 -115 13 -341 -4 -411 -30 -36 -14 -60 -1
-81 43 -13 28 -19 34 -19 20 l-1 -20 -9 20 c-5 11 -9 14 -9 8 -1 -14 -60 -47
-68 -39 -4 3 17 29 45 57 38 37 51 57 47 73 -15 74 -15 98 0 133 15 35 15 39
-1 50 -9 7 -22 14 -28 16 -15 6 33 46 64 53 14 3 36 12 50 20 92 55 188 84
282 84 129 0 218 18 275 56 97 64 176 95 258 101 42 3 78 10 81 14 6 11 34 12
34 1z m-970 -21 c0 -6 23 -11 51 -13 47 -3 52 -5 54 -28 l3 -25 -73 5 c-85 6
-102 16 -79 48 15 22 44 30 44 13z m-2070 -434 c0 -2 -7 -27 -16 -56 l-15 -53
-41 5 c-68 9 -70 48 -5 87 27 17 77 27 77 17z m-883 -73 c-3 -3 -12 -4 -19 -1
-8 3 -5 6 6 6 11 1 17 -2 13 -5z m2758 -160 c13 -14 29 -23 34 -19 6 3 11 2
11 -4 0 -21 -39 -22 -59 -2 -12 12 -21 23 -21 26 0 3 -2 16 -6 30 -3 14 -3 33
2 42 6 14 9 11 12 -15 2 -18 14 -44 27 -58z m771 -35 c46 -22 84 -45 84 -50 0
-5 8 -9 18 -10 9 0 31 -9 47 -19 70 -45 126 -70 155 -70 17 0 29 -4 26 -9 -4
-5 0 -12 6 -15 7 -3 4 -4 -7 -2 -11 3 -46 7 -77 11 -45 5 -58 3 -58 -7 -1 -10
-4 -9 -13 2 -13 17 -57 25 -57 11 0 -16 -32 -22 -47 -9 -13 10 -19 8 -39 -15
-28 -33 -35 -33 -91 -5 -45 23 -73 60 -73 97 0 11 -4 22 -9 25 -16 10 -41 -31
-92 -150 -28 -65 -55 -124 -60 -130 -10 -12 -1 -54 12 -54 5 0 9 -4 9 -8 0
-15 -34 -11 -78 9 -40 18 -44 18 -59 3 -16 -15 -15 -18 5 -34 18 -15 19 -19 6
-24 -15 -6 -64 18 -181 89 -58 35 -87 45 -65 23 7 -7 12 -19 12 -28 0 -10 20
-25 54 -39 66 -27 161 -94 177 -123 9 -18 8 -24 -7 -35 -24 -18 -207 -17 -344
2 -149 20 -288 20 -312 -2 -17 -15 -18 -15 -18 0 0 23 265 286 304 302 30 13
34 19 38 62 5 52 57 138 89 148 23 8 107 -21 134 -44 36 -32 76 -53 90 -47 8
3 17 -3 20 -14 6 -18 8 -19 35 -5 16 8 44 15 63 15 31 0 37 5 59 47 22 43 28
48 68 55 39 7 49 4 83 -19 46 -32 52 -40 38 -57 -6 -7 -8 -16 -4 -19 11 -12
69 -7 88 7 18 13 17 14 -9 39 -58 51 -68 58 -79 54 -7 -2 -17 3 -22 10 -7 9
-29 15 -58 15 -29 0 -50 5 -54 13 -6 10 -19 11 -49 6 -33 -6 -47 -4 -65 10
l-23 17 39 7 c22 4 45 8 50 11 6 2 43 2 84 -1 60 -4 89 -13 157 -46z m2554 41
c0 -5 -5 -10 -11 -10 -5 0 -7 5 -4 10 3 6 8 10 11 10 2 0 4 -4 4 -10z m-1183
-30 c49 -28 103 -84 103 -107 0 -7 -18 -6 -53 2 -46 11 -63 10 -115 -4 -65
-16 -75 -25 -42 -36 35 -11 21 -24 -15 -14 -23 7 -48 6 -76 -1 -53 -14 -60 -7
-14 14 20 10 40 27 45 39 5 12 25 38 46 57 20 19 40 45 45 58 11 28 14 28 76
-8z m1183 1 c0 -5 -7 -14 -15 -21 -16 -14 -18 -10 -9 14 6 17 24 22 24 7z
m-1465 -21 c3 -5 1 -10 -4 -10 -6 0 -11 5 -11 10 0 6 2 10 4 10 3 0 8 -4 11
-10z m-1805 -10 c0 -5 -4 -10 -9 -10 -6 0 -13 5 -16 10 -3 6 1 10 9 10 9 0 16
-4 16 -10z m1743 -15 c-3 -8 -9 -15 -14 -15 -10 0 -12 24 -3 33 11 11 24 -3
17 -18z m1517 -5 c0 -5 -4 -10 -10 -10 -5 0 -10 5 -10 10 0 6 5 10 10 10 6 0
10 -4 10 -10z m-1730 -20 c0 -5 -5 -10 -11 -10 -5 0 -7 5 -4 10 3 6 8 10 11
10 2 0 4 -4 4 -10z m-1780 -37 c-19 -8 -42 -21 -52 -30 -10 -9 -18 -11 -22 -4
-7 10 67 49 94 49 8 0 -1 -6 -20 -15z m1670 10 c0 -5 -5 -15 -10 -23 -8 -12
-10 -11 -10 8 0 12 5 22 10 22 6 0 10 -3 10 -7z m95 -13 c3 -5 -1 -10 -9 -10
-9 0 -16 5 -16 10 0 6 4 10 9 10 6 0 13 -4 16 -10z m-244 -29 c-10 -18 -14
-19 -44 -8 l-32 12 30 3 c17 2 34 8 39 13 15 14 19 3 7 -20z m1979 14 c0 -8
-4 -15 -10 -15 -5 0 -10 7 -10 15 0 8 5 15 10 15 6 0 10 -7 10 -15z m-3750
-21 c6 -14 10 -31 10 -37 0 -13 -45 -37 -69 -37 -12 0 -11 3 2 18 9 10 20 33
23 50 8 39 21 41 34 6z m1620 -24 c-8 -5 -17 -7 -19 -4 -3 3 1 9 9 14 8 5 17
7 19 4 3 -3 -1 -9 -9 -14z m260 -22 c0 -7 -7 -22 -16 -33 -12 -17 -17 -18 -35
-7 -16 10 -22 10 -35 -2 -8 -8 -21 -13 -29 -10 -8 3 -30 -4 -49 -15 -19 -12
-48 -23 -65 -24 -17 -1 -31 -6 -31 -11 0 -4 -7 -6 -15 -2 -8 3 -15 0 -15 -7 0
-19 -55 -66 -82 -70 -19 -3 -24 -11 -26 -42 l-3 -37 -47 6 c-26 3 -58 9 -72
13 -14 3 -92 7 -175 8 -82 2 -157 6 -166 9 -10 5 -19 1 -22 -8 -4 -9 -12 -16
-18 -16 -8 0 -8 4 1 15 10 13 10 19 -5 35 -11 12 -13 20 -6 20 6 0 16 10 21
23 l9 22 0 -22 c1 -30 21 -40 22 -11 0 22 1 22 9 3 5 -11 9 -17 11 -12 5 20 7
28 8 37 0 6 8 10 16 10 9 0 15 9 15 21 0 15 -5 19 -15 15 -20 -7 -19 8 1 28
16 16 54 22 54 8 0 -13 293 -1 343 14 9 3 17 1 17 -4 0 -6 26 -2 58 8 52 17
58 17 70 2 11 -14 12 -14 12 2 0 10 6 16 12 14 7 -3 33 1 58 9 29 9 46 10 48
3 2 -6 10 -6 24 1 16 9 19 8 12 -3 -6 -10 -5 -11 7 -1 8 6 30 13 49 16 19 2
38 5 43 5 4 1 7 -4 7 -10z m130 -2 c0 -11 -12 -14 -44 -13 -30 1 -42 6 -39 14
7 19 83 17 83 -1z m2434 8 c21 -8 20 -21 -6 -71 l-23 -43 -67 0 c-76 0 -79 4
-53 65 8 20 24 39 37 45 27 10 89 13 112 4z m-2537 -26 c-3 -8 -6 -5 -6 6 -1
11 2 17 5 13 3 -3 4 -12 1 -19z m290 -14 c-3 -3 -12 -4 -19 -1 -8 3 -5 6 6 6
11 1 17 -2 13 -5z m-2292 -13 c-6 -5 -21 -12 -35 -15 -24 -7 -24 -6 -6 8 21
17 57 23 41 7z m2074 -55 c4 -3 6 -17 4 -30 -3 -15 1 -32 11 -41 25 -26 21
-110 -9 -174 -25 -54 -50 -85 -150 -191 -61 -65 -114 -138 -149 -208 -14 -28
-30 -54 -36 -57 -6 -4 -15 -18 -20 -31 -5 -13 -14 -24 -20 -24 -16 0 -38 41
-51 95 -16 67 -43 119 -88 168 -91 102 -101 131 -50 149 16 6 28 12 26 14 -2
2 -30 -5 -62 -16 -32 -11 -60 -19 -62 -17 -7 7 134 97 174 111 58 20 124 60
154 92 13 15 48 44 77 66 30 22 51 42 48 45 -9 10 -52 -6 -77 -28 -65 -57
-107 -89 -118 -89 -7 0 -9 -4 -6 -10 3 -5 1 -11 -4 -11 -21 -3 -26 -4 -38 -12
-9 -6 -10 -1 -2 21 14 42 152 146 225 171 46 16 76 20 136 16 43 -2 82 -6 87
-9z m241 -137 c0 -5 -9 -9 -20 -9 -11 0 -20 -4 -20 -10 0 -5 9 -10 20 -10 11
0 20 -6 20 -13 0 -7 40 -55 89 -106 75 -79 89 -99 94 -134 6 -43 -1 -97 -12
-97 -4 0 -11 4 -17 10 -13 13 -54 1 -54 -17 0 -7 10 -33 22 -56 17 -33 21 -56
19 -107 -1 -35 -7 -72 -12 -83 -6 -10 -12 -82 -14 -159 -4 -135 -28 -278 -47
-278 -4 0 -8 -13 -8 -29 0 -28 -73 -151 -89 -151 -4 0 -14 -12 -22 -27 -20
-37 -61 -83 -75 -83 -7 0 -14 -4 -16 -9 -3 -10 -94 -80 -106 -82 -4 -1 -42
-39 -85 -85 l-78 -84 4 -102 c3 -57 14 -146 26 -198 29 -130 22 -198 -27 -252
-19 -21 -37 -36 -39 -34 -3 3 2 34 11 70 13 49 14 71 6 86 -6 11 -13 20 -17
20 -13 0 -70 -40 -91 -64 -12 -14 -30 -26 -41 -26 -17 0 -17 4 9 58 42 85 46
114 18 147 -23 26 -25 26 -68 15 -25 -7 -57 -21 -71 -31 l-27 -19 34 -34 c52
-52 46 -62 -37 -70 -55 -6 -74 -4 -80 6 -5 7 -9 64 -9 126 0 70 -4 112 -10
112 -6 0 -13 -7 -16 -15 -4 -8 -10 -13 -14 -10 -4 2 -15 -4 -25 -15 -39 -43
-47 -13 -14 47 12 21 38 61 59 88 21 28 43 61 50 74 7 13 32 49 56 78 24 30
44 60 44 69 0 8 4 22 10 32 17 31 40 112 40 144 0 30 46 237 77 348 8 30 32
89 53 130 59 116 70 230 23 230 -21 0 -43 25 -43 48 0 27 26 87 65 148 32 49
117 123 179 154 16 8 53 45 83 82 30 37 60 69 66 71 9 3 9 10 -1 31 -6 15 -12
38 -12 51 0 23 4 25 45 25 25 0 45 4 45 9 0 4 11 6 25 3 14 -2 25 -8 25 -13z
m-1270 -29 c51 -17 102 -19 124 -5 25 16 116 9 116 -10 0 -6 -18 -26 -39 -45
-22 -18 -47 -50 -55 -71 -9 -22 -22 -39 -29 -39 -32 0 -166 128 -167 159 0 8
-6 11 -16 7 -8 -3 -13 -2 -9 3 3 5 -1 12 -7 14 -20 8 54 -4 82 -13z m430 -45
c0 -8 -4 -15 -9 -15 -5 0 -30 -26 -55 -57 -35 -44 -46 -67 -46 -93 l0 -34 -22
21 -21 22 24 33 c13 18 30 45 38 59 30 60 91 102 91 64z m-900 -85 c19 -6 73
-15 119 -20 46 -6 98 -17 116 -24 40 -17 74 -64 82 -112 6 -34 4 -37 -14 -32
-15 4 -25 -1 -34 -21 -36 -68 -96 -111 -157 -111 -42 0 -49 -28 -56 -208 -5
-150 -17 -222 -42 -252 -7 -8 -15 -27 -19 -42 -4 -15 -13 -32 -21 -39 -8 -6
-14 -20 -14 -30 0 -11 -4 -19 -10 -19 -5 0 -15 -11 -22 -24 -7 -13 -52 -65
-100 -116 -48 -51 -85 -97 -81 -102 8 -15 -38 2 -55 19 -16 16 -38 13 -36 -5
1 -7 2 -27 3 -46 1 -28 8 -39 36 -56 24 -15 35 -29 35 -45 0 -13 5 -27 10 -30
6 -3 10 -16 10 -27 0 -11 9 -36 21 -55 12 -18 19 -42 16 -52 -2 -10 -1 -25 3
-32 5 -7 3 -24 -5 -40 -8 -14 -11 -29 -8 -33 4 -3 -14 -6 -39 -6 -39 0 -50 5
-71 30 -14 17 -30 30 -36 30 -6 0 -11 5 -11 10 0 6 -17 10 -38 10 -26 0 -50 9
-73 26 -32 25 -38 26 -124 20 -97 -7 -165 -21 -165 -36 0 -6 -20 -7 -46 -3
-39 5 -49 3 -61 -13 -12 -16 -15 -17 -23 -4 -5 8 -7 17 -4 21 6 10 -20 17 -99
25 -57 5 -75 3 -119 -16 -39 -17 -61 -20 -95 -15 -38 5 -44 9 -41 28 2 18 12
23 53 28 28 4 66 15 85 26 19 11 48 23 64 27 16 4 43 18 60 30 41 31 94 57
192 95 119 46 126 56 131 193 4 99 23 233 40 278 3 8 8 24 9 35 4 23 42 107
126 280 36 75 64 148 74 195 10 52 24 86 44 112 18 22 27 43 24 52 -4 11 -1
16 10 16 9 0 16 5 16 11 0 5 -4 7 -10 4 -5 -3 -10 0 -10 7 0 7 10 19 21 27 18
11 23 11 30 -1 7 -10 9 -10 9 0 0 7 13 12 29 12 17 0 33 5 36 10 4 6 11 8 16
5 5 -4 9 -1 9 4 0 14 163 15 210 1z m720 -48 c0 -4 -15 -16 -32 -26 l-33 -17
30 25 c33 29 35 30 35 18z m1540 -992 c0 -5 -18 -10 -40 -10 -22 0 -40 5 -40
10 0 6 18 10 40 10 22 0 40 -4 40 -10z m270 -20 c19 -13 -56 -13 -85 0 -15 7
-9 9 25 9 25 0 52 -4 60 -9z m130 -10 c28 -9 27 -10 -15 -16 -18 -3 -39 2 -50
10 -19 15 -19 15 10 15 17 -1 41 -5 55 -9z m340 -16 c25 -2 167 -13 315 -24
378 -28 417 -37 168 -38 -112 0 -205 3 -208 8 -3 5 -41 8 -84 7 -46 -1 -84 3
-92 9 -8 6 -21 12 -29 12 -8 0 -63 1 -122 2 -59 1 -110 5 -113 9 -2 5 -15 6
-28 4 -14 -3 -29 2 -38 13 -13 16 -8 17 86 10 55 -4 120 -9 145 -12z m-4720
-5 c0 -11 -18 -47 -32 -63 -5 -6 -16 -20 -24 -31 -15 -19 -15 -19 -9 10 10 49
65 120 65 84z m5523 -66 c-13 -2 -35 -2 -50 0 -16 2 -5 4 22 4 28 0 40 -2 28
-4z m-1835 -299 c20 -13 29 -43 17 -56 -3 -3 -27 5 -53 18 -26 13 -62 24 -80
24 -22 0 -32 4 -30 12 10 30 101 31 146 2z m-142 -63 c-9 -13 -46 -15 -46 -1
0 14 34 30 44 20 4 -4 5 -13 2 -19z m149 -38 c-49 -132 -60 -153 -75 -151 -9
2 -15 14 -15 28 0 14 -4 28 -9 32 -5 3 13 29 39 57 49 52 72 65 60 34z m-2722
-396 c15 1 27 -2 27 -7 0 -16 35 -16 47 0 11 13 12 13 13 -3 0 -10 4 -16 9
-13 5 3 11 -1 15 -9 3 -8 12 -15 20 -15 8 0 27 -5 43 -11 l28 -11 -23 -18
c-28 -23 -142 -25 -142 -3 0 7 -9 14 -20 15 -11 0 -26 1 -32 2 -7 1 -16 5 -19
9 -3 4 -27 8 -52 9 -55 1 -67 12 -40 37 26 25 44 30 73 23 14 -4 37 -6 53 -5z
m237 -76 c0 -10 -9 -29 -20 -42 l-20 -24 6 30 c6 28 21 55 30 55 2 0 4 -9 4
-19z m-783 -56 c-11 -68 -107 -233 -107 -184 0 24 52 162 72 192 27 38 42 35
35 -8z m1411 -45 c4 3 8 -10 10 -27 2 -18 -1 -33 -7 -33 -5 0 -14 -12 -20 -27
l-11 -28 6 29 c3 16 1 32 -4 35 -11 7 -15 25 -13 61 2 25 2 25 17 5 8 -11 18
-18 22 -15z m93 -33 c-7 -11 -15 -31 -17 -46 -3 -14 -9 -30 -15 -35 -12 -13
-12 -5 7 71 14 53 19 62 27 47 7 -12 6 -23 -2 -37z m-46 34 c3 -5 1 -12 -5
-16 -5 -3 -10 1 -10 9 0 18 6 21 15 7z m193 -40 c10 -28 9 -32 -3 -27 -9 3
-15 -1 -15 -10 0 -8 -4 -12 -10 -9 -14 8 -13 41 2 65 7 10 13 18 14 17 0 -1 6
-17 12 -36z m-63 -39 c-5 -13 -8 -14 -15 -3 -4 8 -3 27 3 45 l12 31 3 -28 c2
-16 1 -36 -3 -45z m245 3 c-6 -15 -13 -25 -16 -22 -4 3 0 20 7 37 17 37 24 25
9 -15z m-303 -17 c-3 -8 -6 -5 -6 6 -1 11 2 17 5 13 3 -3 4 -12 1 -19z m556
-32 c-4 -17 -3 -18 6 -6 7 10 11 11 11 3 0 -7 19 -32 43 -55 49 -50 65 -90 68
-173 3 -68 -16 -207 -35 -263 -13 -38 -11 -62 5 -62 5 0 9 9 9 21 0 15 5 19
18 15 13 -5 21 2 30 26 19 52 24 26 13 -71 -9 -78 -14 -96 -37 -121 -26 -27
-28 -28 -53 -12 -14 9 -29 21 -33 27 -6 7 -10 7 -15 0 -13 -18 -118 -65 -144
-65 -36 0 -69 27 -70 58 l-1 27 -8 -30 c-5 -18 -8 -22 -9 -11 -1 18 -2 18 -19
3 -10 -10 -22 -17 -25 -17 -10 0 -8 35 4 67 8 22 12 24 19 13 9 -15 90 -22 90
-9 0 4 8 9 18 12 9 4 35 17 57 30 49 29 66 79 42 130 -8 17 -18 42 -22 55 -5
16 -12 22 -22 17 -9 -3 -23 1 -32 9 -9 8 -25 16 -35 17 -27 5 -33 29 -8 29 22
0 88 60 111 99 15 28 24 181 10 181 -10 0 -12 44 -2 78 7 30 23 9 16 -22z
m-1613 -69 c0 -37 -41 -57 -84 -41 -22 8 -3 42 26 46 39 5 58 4 58 -5z m37 -7
c-3 -11 -1 -18 4 -14 5 3 9 -4 9 -15 0 -26 -21 -72 -30 -66 -4 3 -20 -20 -35
-51 -15 -30 -28 -54 -30 -52 -4 4 50 170 64 196 15 28 25 28 18 2z m2498 -178
c-22 -123 -49 -211 -61 -200 -3 4 -9 47 -14 98 -8 84 -7 93 11 111 10 10 20
26 21 34 0 8 1 20 2 27 1 16 39 58 52 58 8 0 4 -41 -11 -128z m-68 46 c-3 -7
-5 -2 -5 12 0 14 2 19 5 13 2 -7 2 -19 0 -25z m-1221 -141 c-19 -124 -34 -173
-48 -159 -7 7 -5 26 5 59 8 26 20 69 27 96 16 59 24 61 16 4z m510 -65 c-11
-10 -14 3 -8 33 l7 30 3 -28 c2 -16 1 -31 -2 -35z m40 -30 c-13 -12 -17 8 -10
40 l9 33 3 -33 c2 -19 1 -36 -2 -40z m441 -74 c-3 -8 -6 -5 -6 6 -1 11 2 17 5
13 3 -3 4 -12 1 -19z"/>
<path d="M5513 6788 c-9 -12 -43 -124 -43 -141 0 -15 47 -6 95 18 63 31 73 31
87 0 15 -34 33 -26 32 13 -2 28 -23 62 -39 62 -3 0 -22 11 -43 24 -49 32 -77
39 -89 24z"/>
<path d="M6320 6544 c0 -15 23 -44 34 -44 3 0 6 14 6 30 0 23 -4 30 -20 30
-12 0 -20 -7 -20 -16z"/>
<path d="M4560 6200 c0 -5 5 -10 10 -10 6 0 10 5 10 10 0 6 -4 10 -10 10 -5 0
-10 -4 -10 -10z"/>
<path d="M4163 5500 c-49 -10 -111 -48 -119 -72 -15 -48 39 -88 140 -103 44
-7 46 -9 46 -41 0 -41 1 -40 -148 -18 -120 17 -128 20 -112 39 7 8 9 19 5 25
-8 14 -85 -56 -85 -77 0 -16 5 -16 28 -2 11 7 29 8 52 2 l35 -9 0 -80 c0 -72
3 -86 30 -130 37 -60 107 -109 178 -124 46 -11 58 -9 108 9 118 45 180 131
183 255 l1 69 44 13 c33 10 48 10 62 1 29 -18 36 2 9 23 -52 40 -110 52 -82
17 10 -11 0 -16 -52 -25 -35 -7 -98 -15 -141 -19 l-76 -6 3 34 3 34 66 7 c37
3 76 11 87 17 81 43 64 110 -36 145 -54 19 -174 28 -229 16z m7 -270 c70 -10
137 -8 253 6 51 6 50 8 50 -61 0 -55 0 -55 -35 -40 -48 19 -113 11 -154 -20
l-34 -26 -26 20 c-48 38 -151 50 -170 20 -3 -5 -9 -9 -15 -9 -10 0 -13 113 -3
123 4 3 18 4 33 2 14 -3 60 -9 101 -15z"/>
<path d="M4935 5350 c-16 -4 -25 -8 -18 -9 6 0 17 -3 25 -6 7 -3 22 1 33 9 22
17 11 19 -40 6z"/>
<path d="M3426 5270 c-59 -11 -76 -17 -76 -29 0 -5 21 -2 48 6 26 8 99 18 162
22 l115 8 -100 0 c-55 1 -122 -3 -149 -7z"/>
<path d="M3810 5271 c0 -6 5 -13 10 -16 6 -3 10 1 10 9 0 9 -4 16 -10 16 -5 0
-10 -4 -10 -9z"/>
<path d="M3720 5260 c0 -5 5 -10 10 -10 6 0 10 5 10 10 0 6 -4 10 -10 10 -5 0
-10 -4 -10 -10z"/>
<path d="M4856 5243 c-7 -7 254 -73 291 -73 25 0 41 18 21 24 -7 2 -47 9 -88
16 -131 22 -174 29 -196 34 -12 3 -24 3 -28 -1z"/>
<path d="M3514 5216 c-85 -21 -154 -51 -154 -68 0 -4 28 6 63 22 41 20 99 35
167 45 57 9 106 18 109 21 12 12 -105 0 -185 -20z"/>
<path d="M3820 5221 c0 -6 5 -13 10 -16 6 -3 10 1 10 9 0 9 -4 16 -10 16 -5 0
-10 -4 -10 -9z"/>
<path d="M3725 5210 c3 -5 8 -10 11 -10 2 0 4 5 4 10 0 6 -5 10 -11 10 -5 0
-7 -4 -4 -10z"/>
<path d="M3665 5203 c-48 -11 -145 -47 -200 -75 -68 -34 -87 -48 -63 -48 8 0
21 7 28 15 7 8 16 15 21 15 5 0 32 11 61 24 29 12 86 33 126 46 83 26 99 39
27 23z"/>
<path d="M3530 4649 c0 -5 5 -7 10 -4 6 3 10 8 10 11 0 2 -4 4 -10 4 -5 0 -10
-5 -10 -11z"/>
<path d="M3625 4650 c-3 -5 -1 -10 4 -10 6 0 11 5 11 10 0 6 -2 10 -4 10 -3 0
-8 -4 -11 -10z"/>
<path d="M3585 4561 c-6 -11 9 -23 19 -14 9 9 7 23 -3 23 -6 0 -12 -4 -16 -9z"/>
<path d="M3951 4594 c0 -11 3 -14 6 -6 3 7 2 16 -1 19 -3 4 -6 -2 -5 -13z"/>
<path d="M4162 4540 c0 -14 2 -19 5 -12 2 6 2 18 0 25 -3 6 -5 1 -5 -13z"/>
<path d="M4168 4323 c7 -3 16 -2 19 1 4 3 -2 6 -13 5 -11 0 -14 -3 -6 -6z"/>
<path d="M4095 1497 c-4 -10 -5 -21 -1 -24 10 -10 18 4 13 24 -4 17 -4 17 -12
0z"/>
<path d="M8523 8360 c0 -25 2 -35 4 -22 2 12 2 32 0 45 -2 12 -4 2 -4 -23z"/>
<path d="M0 8109 c0 -5 5 -7 10 -4 5 3 10 8 10 11 0 2 -4 4 -10 4 -5 0 -10 -5
-10 -11z"/>
<path d="M8523 7570 c0 -30 2 -43 4 -27 2 15 2 39 0 55 -2 15 -4 2 -4 -28z"/>
</g>
</svg>
