<?xml version="1.0" standalone="no"?>
<!DOCTYPE svg PUBLIC "-//W3C//DTD SVG 20010904//EN"
 "http://www.w3.org/TR/2001/REC-SVG-20010904/DTD/svg10.dtd">
<svg version="1.0" xmlns="http://www.w3.org/2000/svg"
 width="612.000000pt" height="408.000000pt" viewBox="0 0 612.000000 408.000000"
 preserveAspectRatio="xMidYMid meet">

<g transform="translate(0.000000,408.000000) scale(0.100000,-0.100000)"
fill="#000000" stroke="none">
<path d="M2820 3076 c-3 -3 -19 -7 -36 -10 -48 -9 -146 -55 -139 -66 3 -6 1
-10 -4 -10 -22 0 -10 -20 12 -21 12 0 16 -3 10 -6 -13 -5 -18 -33 -6 -33 3 0
14 7 24 16 12 11 17 12 15 2 0 -7 1 -14 4 -15 3 -1 21 -9 40 -17 19 -8 40 -15
45 -15 6 -1 10 -5 9 -11 -1 -5 -2 -21 -2 -34 -1 -13 -15 -37 -32 -52 -25 -24
-42 -62 -41 -91 0 -5 -7 -19 -16 -32 -8 -13 -19 -35 -23 -50 -4 -14 -11 -34
-15 -43 -6 -15 -2 -18 25 -18 26 0 30 -3 25 -19 -7 -22 28 -35 55 -21 26 14
40 -3 37 -45 -2 -36 0 -40 28 -45 l29 -5 -34 -32 c-40 -37 -37 -48 8 -31 17 7
34 9 38 6 10 -11 -6 -28 -27 -28 -10 0 -19 -4 -19 -10 0 -13 99 -5 113 9 8 8
4 11 -11 11 -14 0 -22 6 -22 16 0 16 19 15 64 -2 37 -14 12 16 -29 36 -25 12
-45 25 -45 30 0 11 45 21 63 14 24 -9 28 12 7 37 -18 22 -19 23 -20 5 0 -15
-3 -17 -12 -8 -8 8 -17 8 -30 1 -11 -6 -31 -8 -45 -4 -17 4 -29 1 -35 -7 -5
-8 -7 0 -6 22 1 19 11 47 21 62 14 19 18 36 14 61 -7 45 17 84 40 66 11 -10
13 -24 8 -55 -6 -40 -4 -42 29 -58 44 -21 90 -22 83 -1 -4 9 5 18 29 27 31 11
34 15 28 38 -4 14 -7 32 -8 40 -3 28 -16 39 -56 50 -22 6 -40 15 -40 20 0 6
-13 10 -30 10 -32 0 -35 6 -21 42 6 13 12 39 16 59 4 25 12 38 25 42 11 3 18
1 15 -3 -5 -8 23 -16 85 -22 19 -2 28 -13 42 -51 10 -27 29 -63 43 -81 20 -26
25 -45 26 -92 1 -54 1 -57 11 -29 21 56 -21 275 -59 306 -8 7 -23 14 -33 16
-10 1 -43 12 -74 24 -55 20 -76 49 -36 49 11 0 20 3 20 8 0 12 -43 35 -70 38
-14 1 -43 5 -65 9 -22 4 -42 4 -45 1z m167 -122 c13 -4 20 -11 16 -19 -4 -11
-10 -11 -29 -3 -40 19 -31 34 13 22z m-130 -76 c-3 -7 -5 -2 -5 12 0 14 2 19
5 13 2 -7 2 -19 0 -25z m13 -52 c0 -3 -4 -8 -10 -11 -5 -3 -10 -1 -10 4 0 6 5
11 10 11 6 0 10 -2 10 -4z"/>
<path d="M3160 2505 c0 -15 4 -24 10 -20 6 3 10 12 10 20 0 8 -4 17 -10 20 -6
4 -10 -5 -10 -20z"/>
<path d="M3115 2300 c3 -5 8 -10 11 -10 2 0 4 5 4 10 0 6 -5 10 -11 10 -5 0
-7 -4 -4 -10z"/>
<path d="M3003 2271 c-25 -12 -48 -32 -58 -50 -17 -33 -23 -35 -115 -31 l-55
2 33 -31 c37 -35 38 -39 15 -57 -16 -12 -8 -13 55 -14 59 0 86 6 143 30 65 27
69 28 69 10 0 -22 19 -28 21 -7 3 36 8 76 14 111 l6 40 -25 -27 c-14 -15 -31
-27 -37 -27 -7 0 -4 7 7 16 18 15 18 15 -3 9 -23 -6 -32 8 -13 20 14 9 12 25
-2 25 -7 0 -32 -9 -55 -19z"/>
<path d="M3125 2078 c-21 -12 -35 -28 -35 -41 0 -5 5 -5 10 -2 6 3 10 -1 10
-10 0 -23 43 -40 66 -25 18 11 18 11 1 6 -28 -9 -59 12 -55 37 5 33 41 34 67
1 l21 -27 0 25 c0 44 -40 61 -85 36z"/>
<path d="M3470 2064 c0 -7 39 -41 63 -55 35 -20 16 8 -23 34 -22 14 -40 23
-40 21z"/>
<path d="M3145 2041 c-3 -5 -1 -12 4 -15 5 -3 11 1 15 9 6 16 -9 21 -19 6z"/>
<path d="M2590 2032 c0 -4 5 -13 11 -19 13 -13 3 -49 -16 -57 -7 -2 -25 4 -39
15 -24 19 -25 19 -19 2 13 -35 60 -45 83 -18 12 14 16 13 40 -10 14 -14 32
-25 39 -25 8 0 11 -6 7 -15 -4 -12 3 -15 32 -16 23 -1 29 -3 15 -6 -19 -4 -21
-8 -13 -22 13 -26 65 -44 105 -38 19 3 37 1 40 -4 4 -5 27 -9 53 -10 38 -1 42
-2 22 -9 -21 -7 -21 -8 -5 -9 11 0 26 3 34 8 11 7 7 12 -20 20 l-34 11 43 -3
c41 -2 42 -2 42 28 0 19 -7 35 -20 43 -31 19 -24 31 13 22 31 -7 138 -61 165
-83 7 -5 16 -7 20 -2 4 4 -11 22 -33 40 -68 58 -165 71 -370 50 -30 -3 -36 -1
-22 6 28 16 20 32 -12 26 -22 -5 -35 0 -58 20 -15 15 -29 26 -30 25 -2 -1 -11
-2 -20 -1 -12 0 -13 2 -5 6 10 4 10 8 1 19 -12 15 -49 19 -49 6z m243 -149
c-7 -2 -21 -2 -30 0 -10 3 -4 5 12 5 17 0 24 -2 18 -5z m-26 -39 c-3 -3 -12
-4 -19 -1 -8 3 -5 6 6 6 11 1 17 -2 13 -5z"/>
<path d="M3390 1955 c-9 -43 -17 -58 -40 -71 -27 -16 -31 -44 -6 -44 6 0 21
-8 34 -18 l23 -18 -38 4 c-25 2 -33 0 -25 -6 7 -5 12 -15 10 -22 -4 -17 35
-22 47 -6 6 8 46 16 105 20 52 4 122 11 155 15 l60 8 -45 3 c-25 2 -69 2 -97
1 -51 -3 -53 -2 -53 22 0 14 -4 37 -10 52 -9 23 -14 25 -44 20 -33 -7 -33 -7
-40 39 -10 65 -23 65 -36 1z"/>
<path d="M2426 1973 c4 -15 13 -42 21 -60 7 -18 13 -46 13 -63 l0 -30 -40 20
c-47 24 -57 25 -40 6 6 -8 34 -22 61 -31 27 -9 49 -21 49 -27 0 -5 -8 -23 -17
-39 -16 -26 -16 -31 -3 -39 23 -15 27 -12 33 23 6 45 -17 164 -42 214 -26 52
-45 66 -35 26z"/>
<path d="M2811 1979 c-13 -5 -22 -11 -20 -13 7 -7 59 6 59 15 0 11 -8 11 -39
-2z"/>
<path d="M2870 1971 c0 -5 -17 -14 -37 -19 -34 -10 -32 -10 22 -5 57 5 87 13
52 13 -9 0 -17 5 -17 10 0 6 -4 10 -10 10 -5 0 -10 -4 -10 -9z"/>
<path d="M2600 1860 c-8 -5 -11 -12 -7 -16 4 -4 13 -2 19 4 15 15 7 24 -12 12z"/>
<path d="M3215 1860 c3 -5 11 -10 16 -10 6 0 7 5 4 10 -3 6 -11 10 -16 10 -6
0 -7 -4 -4 -10z"/>
<path d="M2510 1846 c0 -9 5 -16 10 -16 6 0 10 4 10 9 0 6 -4 13 -10 16 -5 3
-10 -1 -10 -9z"/>
<path d="M2340 1800 c12 -23 52 -36 77 -25 14 6 11 10 -17 17 -19 5 -39 14
-44 19 -17 16 -27 10 -16 -11z"/>
<path d="M2646 1795 c22 -34 10 -49 -26 -30 -16 8 -31 11 -34 6 -3 -5 1 -12
10 -15 8 -3 12 -11 8 -17 -3 -6 4 -25 16 -41 l23 -31 -22 6 c-12 3 -21 0 -21
-6 0 -6 -7 -2 -15 9 -11 14 -10 7 3 -25 22 -53 39 -66 76 -57 21 5 26 12 24
29 -4 26 49 58 62 37 5 -9 13 -9 27 -1 13 7 30 7 49 1 16 -5 41 -12 57 -15 15
-3 27 -10 27 -15 0 -14 -107 -13 -112 1 -2 6 -12 0 -23 -12 -18 -20 -18 -22
-2 -16 27 10 45 -2 52 -34 11 -51 97 -83 159 -59 33 12 60 64 52 101 -6 30 -5
30 44 33 20 1 16 19 -6 27 -39 13 32 15 91 3 75 -16 98 -17 90 -4 -4 6 5 10
19 10 32 0 32 4 4 58 -18 34 -27 42 -43 37 -58 -16 -116 -23 -161 -19 -180 16
-275 10 -259 -17 4 -5 2 -9 -4 -9 -5 0 -13 5 -16 11 -9 13 -82 2 -113 -18 -29
-18 -38 -12 -21 15 10 16 10 26 -1 51 -7 17 -16 31 -21 31 -5 0 -2 -11 7 -25z
m394 -129 c0 -13 -89 -48 -102 -39 -16 9 -7 23 15 23 12 1 36 7 52 15 17 7 31
14 33 14 1 1 2 -5 2 -13z m-20 -56 c0 -15 -7 -20 -29 -20 -17 0 -33 -5 -36
-11 -5 -6 -22 -8 -46 -4 -24 4 -45 3 -53 -4 -10 -9 -15 -7 -19 8 -4 18 2 20
62 27 36 4 75 10 86 15 31 12 35 11 35 -11z"/>
<path d="M2366 1734 c18 -15 18 -15 0 -10 -23 8 -46 -10 -46 -36 0 -15 -5 -18
-22 -14 -14 4 -11 0 7 -8 29 -14 30 -13 35 12 3 15 9 26 13 25 4 -2 15 -3 25
-4 11 0 12 -2 4 -6 -10 -4 -10 -8 -1 -19 6 -7 8 -22 5 -31 -6 -15 -5 -16 5 -5
7 6 25 12 40 12 16 0 29 7 33 16 8 22 -1 31 -16 16 -9 -9 -14 -6 -23 11 -6 12
-18 21 -26 19 -8 -2 -11 0 -7 4 11 10 -11 34 -30 34 -13 0 -12 -3 4 -16z"/>
<path d="M3370 1730 c-14 -11 -33 -20 -42 -20 -24 0 -23 -14 8 -59 24 -37 29
-39 82 -43 31 -2 58 -3 60 -2 1 0 -14 12 -33 25 -20 13 -38 34 -41 46 -4 13
-11 20 -18 16 -7 -4 -7 -2 1 7 10 11 16 10 35 -2 51 -35 70 -60 65 -87 -7 -33
21 -90 34 -70 15 24 41 -2 84 -84 27 -51 52 -84 75 -99 45 -30 70 -80 70 -140
0 -27 2 -48 5 -48 2 0 19 9 37 20 19 12 51 20 76 20 23 0 42 4 42 10 0 10 -13
14 -83 25 -21 3 -39 11 -41 18 -18 64 -29 126 -28 146 2 30 -50 113 -85 136
-25 17 -27 33 -8 90 5 17 0 24 -26 36 l-32 15 36 23 c44 27 46 32 10 21 -16
-5 -60 -16 -100 -25 -77 -17 -95 -14 -138 26 -19 17 -21 17 -45 -1z m157 -66
c-3 -3 -12 -4 -19 -1 -8 3 -5 6 6 6 11 1 17 -2 13 -5z"/>
<path d="M2540 1680 c0 -5 5 -10 10 -10 6 0 10 5 10 10 0 6 -4 10 -10 10 -5 0
-10 -4 -10 -10z"/>
<path d="M3115 1650 c4 -6 11 -8 16 -5 14 9 11 15 -7 15 -8 0 -12 -5 -9 -10z"/>
<path d="M3160 1648 c0 -20 33 -37 53 -26 11 5 31 7 45 4 25 -5 25 -4 -3 8
-45 20 -95 27 -95 14z m60 -12 c0 -2 -7 -7 -16 -10 -8 -3 -12 -2 -9 4 6 10 25
14 25 6z"/>
<path d="M3130 1545 c-7 -9 -10 -19 -6 -22 4 -4 10 -3 14 2 4 6 18 10 32 10
21 0 25 -6 28 -35 2 -19 8 -39 14 -45 7 -7 9 -2 6 17 -3 15 0 29 6 32 7 3 6 8
-4 15 -8 6 -10 11 -5 12 9 0 -51 26 -66 28 -4 1 -12 -6 -19 -14z"/>
<path d="M3240 1505 c0 -17 2 -18 24 -9 23 9 20 24 -4 24 -11 0 -20 -7 -20
-15z"/>
<path d="M3300 1502 c0 -5 7 -9 15 -9 8 0 15 4 15 9 0 4 -7 8 -15 8 -8 0 -15
-4 -15 -8z"/>
<path d="M3150 1482 c0 -12 3 -12 18 -1 9 7 19 14 21 16 2 1 -6 1 -18 0 -11
-1 -21 -8 -21 -15z"/>
<path d="M3110 1475 c-7 -8 -9 -15 -6 -15 4 0 14 7 22 15 9 8 11 15 6 15 -5 0
-15 -7 -22 -15z"/>
<path d="M2750 1476 c0 -2 7 -6 15 -10 8 -3 15 -1 15 4 0 6 -7 10 -15 10 -8 0
-15 -2 -15 -4z"/>
<path d="M3004 1464 c3 -9 6 -23 6 -32 1 -12 5 -10 14 8 16 28 12 40 -11 40
-10 0 -13 -6 -9 -16z"/>
<path d="M3250 1469 c0 -5 5 -7 10 -4 6 3 10 8 10 11 0 2 -4 4 -10 4 -5 0 -10
-5 -10 -11z"/>
<path d="M2950 1461 c8 -6 11 -11 5 -11 -5 -1 1 -6 14 -11 26 -10 41 -4 25 10
-5 5 -20 12 -34 16 -19 5 -21 4 -10 -4z"/>
<path d="M3440 1425 c-14 -8 -38 -14 -53 -15 -27 0 -113 -58 -102 -68 3 -3 14
3 25 13 19 18 20 17 21 -6 l0 -24 11 22 c18 38 113 57 160 32 29 -16 45 3 30
36 -13 29 -51 33 -92 10z"/>
<path d="M2673 1415 c-7 -21 0 -27 39 -31 18 -2 38 -6 45 -8 18 -7 124 -20
156 -19 15 0 27 -3 27 -7 0 -3 21 -6 48 -5 26 1 51 -1 56 -3 19 -10 68 -7 78
6 6 7 9 14 7 16 -2 1 -80 10 -174 18 -181 17 -192 19 -214 33 -10 5 -16 4 -19
-3 -5 -17 -22 -15 -22 3 0 20 -19 19 -27 0z"/>
<path d="M2688 1346 c63 -31 59 -30 59 -12 0 8 -13 17 -28 20 -14 3 -40 8 -55
11 -18 4 -8 -4 24 -19z"/>
<path d="M3145 1360 c3 -5 8 -10 11 -10 2 0 4 5 4 10 0 6 -5 10 -11 10 -5 0
-7 -4 -4 -10z"/>
<path d="M2617 1343 c-15 -14 -5 -22 36 -32 37 -9 32 -10 -40 -6 -80 4 -83 4
-89 -19 -3 -13 1 -36 8 -51 l14 -26 13 24 c16 30 36 39 119 58 l63 13 -52 23
c-56 25 -62 26 -72 16z"/>
<path d="M3233 1297 c-17 -19 -36 -44 -42 -55 -7 -12 -18 -22 -27 -22 -8 0
-14 -7 -12 -17 4 -23 -50 -34 -104 -21 -26 5 -45 5 -51 -1 -6 -6 -3 -8 12 -4
12 3 21 1 21 -6 0 -6 -7 -11 -16 -11 -11 0 -14 -5 -10 -16 4 -11 1 -14 -12
-10 -16 5 -19 0 -20 -36 -1 -23 -6 -44 -10 -47 -16 -11 -34 -70 -28 -89 6 -17
17 -20 100 -21 100 -2 132 6 198 51 l38 26 -67 42 -68 42 25 21 c21 17 22 19
5 14 -18 -6 -18 -5 3 12 21 18 31 38 14 27 -12 -7 -8 34 4 42 12 9 87 112 81
112 -2 0 -17 -15 -34 -33z"/>
<path d="M3275 1301 c-9 -18 -11 -31 -5 -31 11 0 34 50 26 57 -2 3 -12 -9 -21
-26z"/>
<path d="M2815 1314 c6 -5 23 -20 40 -34 29 -24 29 -24 10 -2 -11 13 -29 28
-40 34 -11 6 -15 6 -10 2z"/>
<path d="M2059 1240 c24 -11 46 -18 48 -16 7 7 -54 36 -74 36 -10 0 2 -9 26
-20z"/>
<path d="M3236 1248 c-7 -21 -3 -48 6 -48 4 0 8 14 8 30 0 31 -8 40 -14 18z"/>
<path d="M3260 1249 c0 -5 5 -7 10 -4 6 3 10 8 10 11 0 2 -4 4 -10 4 -5 0 -10
-5 -10 -11z"/>
<path d="M3440 1175 c-15 -18 -36 -20 -44 -2 -2 6 -4 -33 -3 -88 2 -92 4 -100
22 -103 18 -2 20 2 17 47 -2 27 3 74 12 103 16 57 16 67 -4 43z"/>
<path d="M3837 1173 c-4 -3 -7 -14 -7 -24 0 -12 -6 -17 -20 -14 -11 2 -20 -1
-20 -7 0 -7 13 -8 36 -5 40 7 56 17 36 24 -10 4 -10 8 -1 19 9 11 8 14 -3 14
-8 0 -18 -3 -21 -7z"/>
<path d="M2901 1143 c15 -15 31 -37 37 -48 10 -18 11 -18 18 9 9 39 -6 60 -47
64 l-34 4 26 -29z"/>
<path d="M3920 1150 c-19 -12 -7 -22 21 -18 19 2 20 5 8 15 -9 7 -20 9 -29 3z"/>
<path d="M3998 1153 c7 -3 16 -2 19 1 4 3 -2 6 -13 5 -11 0 -14 -3 -6 -6z"/>
<path d="M3753 884 c-4 -11 -13 -14 -31 -9 -19 5 -23 3 -19 -9 9 -23 -19 -32
-84 -29 -52 2 -59 0 -90 -31 -19 -19 -45 -36 -58 -38 -29 -4 -36 -18 -19 -40
11 -14 22 -15 68 -7 30 5 107 14 170 19 158 15 186 23 193 58 7 35 -22 85 -45
79 -10 -3 -22 1 -29 9 -15 19 -48 18 -56 -2z"/>
<path d="M2806 667 c3 -10 9 -15 12 -12 3 3 0 11 -7 18 -10 9 -11 8 -5 -6z"/>
<path d="M2863 601 c-3 -11 -11 -17 -18 -15 -11 5 -26 -23 -29 -54 -1 -7 -8
-17 -16 -22 -13 -9 -11 -13 10 -30 29 -23 41 -24 130 -10 68 11 190 65 190 84
0 6 -17 19 -38 29 -29 14 -50 16 -97 11 -57 -6 -59 -6 -40 11 20 16 20 16 -5
11 -14 -3 -28 -6 -32 -6 -5 0 -8 -6 -8 -14 0 -7 -8 -20 -17 -27 -15 -13 -16
-11 -10 19 7 35 -11 47 -20 13z"/>
</g>
</svg>
